<svg width="32" height="31" viewBox="0 0 32 31" fill="none" xmlns="http://www.w3.org/2000/svg">
<path d="M15.687 0.0915527C7.03715 0.0915527 0 6.89414 0 15.2557C0 23.6172 7.03715 30.4198 15.687 30.4198C24.3369 30.4198 31.374 23.6172 31.374 15.2557C31.374 6.89414 24.3369 0.0915527 15.687 0.0915527ZM15.687 28.6848C8.02688 28.6848 1.79479 22.6605 1.79479 15.2557C1.79479 7.85087 8.02688 1.82651 15.687 1.82651C23.3472 1.82651 29.5793 7.85087 29.5793 15.2557C29.5793 22.6605 23.3472 28.6848 15.687 28.6848Z" fill="#8C939F"/>
<path d="M19.4096 12.9343H16.6809V11.0092C16.6809 10.4187 17.3128 10.2818 17.6077 10.2818C17.9007 10.2818 19.3705 10.2818 19.3705 10.2818V7.68377L17.3502 7.67358C14.5937 7.67358 13.9646 9.61074 13.9646 10.8528V12.9344H11.9644V15.6111H13.9646C13.9646 19.0476 13.9646 22.8377 13.9646 22.8377H16.6809C16.6809 22.8377 16.6809 19.0087 16.6809 15.6111H18.9883L19.4096 12.9343Z" fill="#8C939F"/>
</svg>
