<svg width="31" height="30" viewBox="0 0 31 30" fill="none" xmlns="http://www.w3.org/2000/svg">
<g clip-path="url(#clip0)">
<path d="M15.5001 0.568359C7.42693 0.568359 0.858917 7.13637 0.858917 15.2096C0.858917 23.2828 7.42693 29.8508 15.5001 29.8508C23.5733 29.8508 30.1414 23.2828 30.1414 15.2096C30.1414 7.13637 23.5733 0.568359 15.5001 0.568359ZM15.5001 28.1757C8.35067 28.1757 2.53405 22.359 2.53405 15.2096C2.53405 8.06011 8.35067 2.24349 15.5001 2.24349C22.6496 2.24349 28.4662 8.06011 28.4662 15.2096C28.4662 22.359 22.6496 28.1757 15.5001 28.1757Z" fill="#C6392B"/>
<g clip-path="url(#clip1)">
<rect x="8.50015" y="7.70947" width="14" height="15" rx="4" fill="white"/>
<path d="M18.7105 7.70947H12.2898C10.2002 7.70947 8.50015 9.53091 8.50015 11.7698V18.6492C8.50015 20.888 10.2002 22.7094 12.2898 22.7094H18.7106C20.8001 22.7094 22.5001 20.888 22.5001 18.6492V11.7698C22.5001 9.53091 20.8001 7.70947 18.7105 7.70947V7.70947ZM15.5001 19.3109C13.3893 19.3109 11.6721 17.471 11.6721 15.2095C11.6721 12.9479 13.3893 11.108 15.5001 11.108C17.6109 11.108 19.3281 12.9479 19.3281 15.2095C19.3281 17.471 17.6109 19.3109 15.5001 19.3109ZM19.4197 12.0753C18.7959 12.0753 18.2886 11.5317 18.2886 10.8633C18.2886 10.195 18.7959 9.6513 19.4197 9.6513C20.0435 9.6513 20.5509 10.195 20.5509 10.8633C20.5509 11.5317 20.0435 12.0753 19.4197 12.0753Z" fill="#C6392B"/>
<path d="M15.5003 11.9875C13.8421 11.9875 12.493 13.4329 12.493 15.2096C12.493 16.9862 13.8421 18.4317 15.5003 18.4317C17.1585 18.4317 18.5075 16.9862 18.5075 15.2096C18.5075 13.4329 17.1585 11.9875 15.5003 11.9875Z" fill="#C6392B"/>
<path d="M19.4198 10.5308C19.2487 10.5308 19.1094 10.68 19.1094 10.8633C19.1094 11.0467 19.2487 11.1959 19.4198 11.1959C19.591 11.1959 19.7303 11.0468 19.7303 10.8633C19.7303 10.6799 19.591 10.5308 19.4198 10.5308Z" fill="#C6392B"/>
</g>
</g>
<defs>
<clipPath id="clip0">
<rect x="0.858917" y="0.568359" width="29.2824" height="29.2824" fill="white"/>
</clipPath>
<clipPath id="clip1">
<rect x="8.50015" y="7.70947" width="14" height="15" rx="4" fill="white"/>
</clipPath>
</defs>
</svg>
