<svg width="15" height="15" viewBox="0 0 15 15" fill="none" xmlns="http://www.w3.org/2000/svg">
<path d="M3.47715 15C3.47715 14.4294 3.38394 13.0278 3.38312 12.6127C3.3828 12.43 3.25876 12.3769 3.10994 12.3291C2.20441 12.0387 1.45842 11.5305 0.927901 10.7257C0.453866 10.0067 0.220448 9.20631 0.120912 8.36233C-0.0721454 6.7263 -0.0572039 5.09397 0.336337 3.48764C0.684324 2.06695 1.53577 1.08371 2.94162 0.575012C4.61481 -0.0305373 6.33753 -0.0399213 8.07778 0.0288652C8.92162 0.0622107 9.75385 0.15915 10.5647 0.388969C11.4281 0.633685 12.2798 0.919172 12.8918 1.63546C13.3287 2.14685 13.5908 2.75085 13.7608 3.39444C14.147 4.8564 14.1547 6.33905 14.0206 7.835C13.9556 8.55903 13.8723 9.27396 13.6128 9.9549C13.1165 11.2572 12.1603 12.0181 10.8185 12.3576C9.28077 12.7467 7.72387 12.8959 6.14365 12.8366C5.92481 12.8284 5.79553 12.9396 5.66269 13.086C4.84914 13.8672 3.53787 14.9434 3.47715 15Z" fill="#8C939F"/>
<path d="M10.4933 9.22539C10.4358 9.73851 10.1542 10.025 9.87314 10.2987C9.55572 10.6078 9.17794 10.7914 8.72609 10.6105C8.37902 10.4716 8.03868 10.3132 7.70459 10.1451C6.65544 9.6177 5.73493 8.91271 4.94101 8.05192C4.00055 7.03215 3.26508 5.88246 2.83246 4.55278C2.71935 4.2052 2.77861 3.8953 3.05248 3.65701C3.30426 3.43789 3.57162 3.23135 3.85419 3.05451C4.05804 2.92696 4.30508 2.93958 4.49076 3.10517C5.00784 3.56617 5.43081 4.10508 5.70504 4.74479C5.79797 4.96167 5.77748 5.19035 5.5651 5.35836C5.46115 5.44054 5.36321 5.53023 5.26112 5.61478C4.9801 5.84747 4.93637 6.00923 5.04884 6.35339C5.30453 7.13592 5.85401 7.67769 6.51723 8.11433C6.74103 8.26165 7.00251 8.35713 7.25557 8.45298C7.47117 8.53461 7.65093 8.44478 7.78955 8.26871C7.86184 8.17687 7.932 8.08335 8.00616 7.99315C8.21767 7.73605 8.58916 7.65104 8.86549 7.8359C9.35082 8.16047 9.82804 8.49903 10.2887 8.85727C10.4048 8.94751 10.4453 9.13455 10.4933 9.22539Z" fill="#F9F9F9"/>
<path d="M11.1887 7.01846C11.006 7.01846 10.8579 6.87032 10.8579 6.68765C10.8579 4.39596 8.9935 2.53162 6.702 2.53162C6.51933 2.53162 6.37119 2.38348 6.37119 2.20081C6.37119 2.01814 6.51933 1.87 6.702 1.87C9.35839 1.87 11.5196 4.03121 11.5196 6.6876C11.5196 6.87032 11.3715 7.01846 11.1887 7.01846Z" fill="#F9F9F9"/>
<path d="M9.96508 7.01842C9.78236 7.01842 9.63426 6.87028 9.63426 6.68761C9.63426 5.07076 8.31885 3.75525 6.702 3.75525C6.51933 3.75525 6.37119 3.60711 6.37119 3.42444C6.37119 3.24177 6.51933 3.09363 6.702 3.09363C8.68364 3.09363 10.2959 4.70583 10.2959 6.68756C10.2959 6.87028 10.1478 7.01842 9.96508 7.01842Z" fill="#F9F9F9"/>
<path d="M8.7415 7.01826C8.55878 7.01826 8.41068 6.87012 8.41068 6.68745C8.41068 5.7453 7.64415 4.97876 6.702 4.97876C6.51933 4.97876 6.37119 4.83062 6.37119 4.64795C6.37119 4.46528 6.51933 4.31714 6.702 4.31714C8.00894 4.31714 9.07226 5.38046 9.07226 6.6874C9.07226 6.87012 8.92421 7.01826 8.7415 7.01826Z" fill="#F9F9F9"/>
</svg>
