<svg width="31" height="31" viewBox="0 0 31 31" fill="none" xmlns="http://www.w3.org/2000/svg">
<path d="M15.8359 0C7.47434 0 0.671753 6.80258 0.671753 15.1641C0.671753 23.5257 7.47434 30.3282 15.8359 30.3282C24.1974 30.3282 31 23.5257 31 15.1641C31 6.80258 24.1974 0 15.8359 0ZM15.8359 28.5933C8.43107 28.5933 2.40671 22.5689 2.40671 15.1641C2.40671 7.75932 8.43107 1.73496 15.8359 1.73496C23.2407 1.73496 29.265 7.75932 29.265 15.1641C29.265 22.5689 23.2407 28.5933 15.8359 28.5933Z" fill="#8C939F"/>
<path d="M22.848 11.4482C23.0741 11.4969 23.1486 11.7661 23.0512 11.9493C22.9854 12.0781 22.9109 12.2041 22.8393 12.33C22.8336 12.4188 22.7964 12.5018 22.7162 12.5505C22.0835 13.6642 21.3591 14.7178 20.5346 15.7055C20.5317 15.7084 20.5261 15.7112 20.5232 15.7169C21.4737 16.3725 23.7469 18.0474 22.6361 18.9893C22.0549 19.4846 20.3715 19.4016 19.7187 19.121C19.3436 18.9607 19.0029 18.6773 18.6823 18.4253C18.124 17.9872 17.9665 18.013 17.4655 18.4797C16.8213 19.0809 16.4634 19.4617 15.5129 19.3529C14.3964 19.224 13.3228 18.6027 12.4696 17.9042C10.6774 16.4298 9.06553 13.9533 8.58456 11.6716C8.54733 11.494 8.69906 11.3566 8.8451 11.3537C8.85372 11.3509 8.85653 11.348 8.86515 11.3451C9.73551 11.1905 10.7118 11.1533 11.5907 11.2506C11.6737 11.2592 11.7367 11.2936 11.7854 11.3365C11.8083 11.3451 11.834 11.3594 11.8541 11.3852C12.5527 12.2069 12.8619 13.292 13.5891 14.0908C13.9412 14.4773 14.0557 14.4143 14.093 13.8818C14.1101 13.6527 14.1101 13.4237 14.0987 13.1947C14.0644 12.5963 13.8467 12.0724 13.7552 11.4912C13.7409 11.4081 13.758 11.3337 13.7953 11.2707C13.8153 11.1476 13.9155 11.0302 14.0615 11.0102C14.9119 10.8985 15.8108 11.0016 16.6726 10.9758C16.7986 10.9415 16.8988 10.9901 16.9646 11.076C17.0247 11.0932 17.0791 11.1361 17.0963 11.2134C17.2223 11.7459 17.2108 12.2556 17.2022 12.7995C17.1965 13.0543 17.1908 13.312 17.185 13.5668C17.1793 13.7129 17.1793 13.8588 17.1793 14.0049C17.122 14.274 17.2279 14.3771 17.4942 14.3141C17.9437 14.3627 18.0668 13.9906 18.2873 13.647C18.4189 13.4438 18.5449 13.2348 18.6652 13.0229C18.9457 12.5247 19.1547 12.0008 19.4153 11.494C19.4611 11.3995 19.5413 11.3566 19.6243 11.3452C19.65 11.3309 19.6816 11.3223 19.713 11.3194C20.7379 11.2965 21.8402 11.2335 22.848 11.4482Z" fill="#8C939F"/>
</svg>
