<svg width="46" height="46" viewBox="0 0 46 46" fill="none" xmlns="http://www.w3.org/2000/svg">
<g clip-path="url(#clip0)">
<path d="M43.1792 6.03076H19.93V13.5305C19.93 14.3589 19.2584 15.0305 18.43 15.0305H10.1803V43.5295C10.1829 44.3568 10.853 45.0269 11.6802 45.0295H43.1792C44.0064 45.0269 44.6766 44.3568 44.6792 43.5295V7.53071C44.6766 6.70347 44.0064 6.03333 43.1792 6.03076Z" fill="#D7D7D7"/>
<path d="M43.1792 5.28134H36.4295V3.03142C36.4295 1.78891 35.4221 0.781494 34.1795 0.781494H10.9303C10.9138 0.781494 10.8996 0.789184 10.8831 0.790649C10.8241 0.794311 10.7655 0.805297 10.7091 0.823607C10.6835 0.829832 10.6586 0.837523 10.6341 0.846678C10.5557 0.878537 10.4828 0.923945 10.4195 0.98034L0.669792 9.98004C0.60351 10.0445 0.549312 10.1207 0.510862 10.2049C0.499876 10.2294 0.490354 10.2543 0.482298 10.28C0.457763 10.3473 0.443115 10.4176 0.439087 10.4891C0.439087 10.5048 0.429199 10.5191 0.429199 10.5348V39.0302C0.429199 40.2727 1.43661 41.2802 2.67912 41.2802H9.4289V43.5301C9.4289 44.7726 10.4363 45.78 11.6788 45.78H43.1792C44.4217 45.78 45.4292 44.7726 45.4292 43.5301V7.53127C45.4292 6.28876 44.4217 5.28134 43.1792 5.28134ZM10.1803 3.24455V9.03122C10.1803 9.44539 9.84453 9.78119 9.43036 9.78119H3.09915L10.1803 3.24455ZM2.68059 39.7802C2.26642 39.7802 1.93061 39.4444 1.93061 39.0302V11.2811H9.43036C10.6729 11.2811 11.6803 10.2737 11.6803 9.03122V2.28144H34.1795C34.5937 2.28144 34.9295 2.61725 34.9295 3.03142V5.28134H19.93C19.9135 5.28134 19.8993 5.28903 19.8828 5.2905C19.8238 5.29416 19.7656 5.30515 19.7096 5.32346C19.6839 5.32932 19.659 5.33737 19.6345 5.34653C19.5561 5.37839 19.4836 5.4238 19.4199 5.48019L9.67022 14.4799C9.60394 14.5443 9.54975 14.6205 9.51129 14.7047C9.50031 14.7293 9.49079 14.7542 9.48273 14.7798C9.45819 14.8472 9.44355 14.9175 9.43952 14.9889C9.43952 15.0047 9.42963 15.0189 9.42963 15.0347V39.7802H2.68059ZM19.18 7.7444V13.5311C19.18 13.9452 18.8442 14.281 18.4301 14.281H12.0989L19.18 7.7444ZM43.9292 43.5301C43.9292 43.9442 43.5934 44.28 43.1792 44.28H11.6803C11.2661 44.28 10.9303 43.9442 10.9303 43.5301V15.781H18.4301C19.6726 15.781 20.68 14.7736 20.68 13.5311V6.78129H43.1792C43.5934 6.78129 43.9292 7.1171 43.9292 7.53127V43.5301Z" fill="#999999"/>
<path d="M38.6794 24.7803H16.1802C15.766 24.7803 15.4302 25.1161 15.4302 25.5303C15.4302 25.9444 15.766 26.2802 16.1802 26.2802H27.4298H38.6794C39.0936 26.2802 39.4294 25.9444 39.4294 25.5303C39.4294 25.1161 39.0936 24.7803 38.6794 24.7803Z" fill="#999999"/>
<path d="M38.6794 29.28H16.1802C15.766 29.28 15.4302 29.6158 15.4302 30.03C15.4302 30.4442 15.766 30.78 16.1802 30.78H38.6794C39.0936 30.78 39.4294 30.4442 39.4294 30.03C39.4294 29.6158 39.0936 29.28 38.6794 29.28Z" fill="#999999"/>
<path d="M38.6794 33.78H16.1802C15.766 33.78 15.4302 34.1158 15.4302 34.53C15.4302 34.9442 15.766 35.28 16.1802 35.28H38.6794C39.0936 35.28 39.4294 34.9442 39.4294 34.53C39.4294 34.1158 39.0936 33.78 38.6794 33.78Z" fill="#999999"/>
<path d="M38.6794 38.2798H16.1802C15.766 38.2798 15.4302 38.6156 15.4302 39.0298C15.4302 39.4439 15.766 39.7797 16.1802 39.7797H38.6794C39.0936 39.7797 39.4294 39.4439 39.4294 39.0298C39.4294 38.6156 39.0936 38.2798 38.6794 38.2798Z" fill="#999999"/>
<path d="M38.6794 20.2803H22.1799C21.7657 20.2803 21.4299 20.6161 21.4299 21.0302C21.4299 21.4444 21.7657 21.7802 22.1799 21.7802H38.6794C39.0935 21.7802 39.4293 21.4444 39.4293 21.0302C39.4293 20.6161 39.0935 20.2803 38.6794 20.2803Z" fill="#999999"/>
<path d="M16.1802 21.7802H19.1801C19.5942 21.7802 19.93 21.4444 19.93 21.0302C19.93 20.6161 19.5942 20.2803 19.1801 20.2803H16.1802C15.766 20.2803 15.4302 20.6161 15.4302 21.0302C15.4302 21.4444 15.766 21.7802 16.1802 21.7802Z" fill="#999999"/>
</g>
<defs>
<clipPath id="clip0">
<rect x="0.429199" y="0.779541" width="45" height="45" fill="white"/>
</clipPath>
</defs>
</svg>
