<svg width="46" height="46" viewBox="0 0 46 46" fill="none" xmlns="http://www.w3.org/2000/svg">
<path d="M39.6704 23.9827H43.8892L38.2642 18.3577V22.5764C38.2653 22.949 38.4138 23.3061 38.6773 23.5696C38.9408 23.833 39.2978 23.9816 39.6704 23.9827Z" fill="white"/>
<path d="M36.8579 9.92017H10.1392C9.39324 9.92017 8.67787 10.2165 8.15042 10.7439C7.62298 11.2714 7.32666 11.9867 7.32666 12.7327V29.6077C7.32666 30.3536 7.62298 31.069 8.15042 31.5964C8.67787 32.1238 9.39324 32.4202 10.1392 32.4202H18.5767V42.2639C18.5778 42.6365 18.7263 42.9936 18.9898 43.2571C19.2533 43.5205 19.6103 43.6691 19.9829 43.6702H34.0454C34.418 43.6691 34.7751 43.5205 35.0385 43.2571C35.302 42.9936 35.4506 42.6365 35.4517 42.2639V28.2014L29.8267 22.5764H27.0142V19.7639C27.0153 19.3913 27.1638 19.0343 27.4273 18.7708C27.6908 18.5073 28.0478 18.3588 28.4204 18.3577H38.2642V11.3264C38.2631 10.9538 38.1145 10.5968 37.851 10.3333C37.5876 10.0698 37.2305 9.92128 36.8579 9.92017Z" fill="#D7D7D7"/>
<path d="M9.43604 12.7327V15.5452H10.8423V13.4358H12.9517V12.0295H10.1392C9.95268 12.0295 9.77384 12.1036 9.64198 12.2355C9.51011 12.3673 9.43604 12.5462 9.43604 12.7327Z" fill="#999999"/>
<path d="M9.43604 16.9514H10.8423V18.3577H9.43604V16.9514Z" fill="#999999"/>
<path d="M44.3863 23.4856L38.9673 18.0666V11.3264C38.9655 10.8917 38.8294 10.4682 38.5777 10.1137C38.326 9.75931 37.9709 9.49132 37.561 9.34642V7.10767C37.561 6.54822 37.3388 6.0117 36.9432 5.61611C36.5476 5.22053 36.0111 4.99829 35.4517 4.99829H15.7642C15.5777 4.99829 15.3988 4.92421 15.267 4.79235C15.1351 4.66049 15.061 4.48165 15.061 4.29517C15.061 3.73572 14.8388 3.1992 14.4432 2.80361C14.0476 2.40803 13.5111 2.18579 12.9517 2.18579H4.51416C3.95472 2.18579 3.41819 2.40803 3.02261 2.80361C2.62702 3.1992 2.40479 3.73572 2.40479 4.29517V31.0139C2.40479 31.5734 2.62702 32.1099 3.02261 32.5055C3.41819 32.9011 3.95472 33.1233 4.51416 33.1233H17.8735V42.2639C17.8735 42.8234 18.0958 43.3599 18.4914 43.7555C18.8869 44.1511 19.4235 44.3733 19.9829 44.3733H34.0454C34.6049 44.3733 35.1414 44.1511 35.537 43.7555C35.9325 43.3599 36.1548 42.8234 36.1548 42.2639V40.1545H42.4829C43.0424 40.1545 43.5789 39.9323 43.9745 39.5367C44.37 39.1411 44.5923 38.6046 44.5923 38.0452V23.9827C44.5922 23.7962 44.5181 23.6174 44.3863 23.4856ZM38.9673 20.055L42.1918 23.2795H39.6704C39.4839 23.2795 39.3051 23.2055 39.1732 23.0736C39.0414 22.9417 38.9673 22.7629 38.9673 22.5764V20.055ZM3.81104 31.0139V4.29517C3.81104 4.10869 3.88511 3.92984 4.01698 3.79798C4.14884 3.66612 4.32768 3.59204 4.51416 3.59204H12.9517C13.1381 3.59204 13.317 3.66612 13.4488 3.79798C13.5807 3.92984 13.6548 4.10869 13.6548 4.29517C13.6548 4.85461 13.877 5.39113 14.2726 5.78672C14.6682 6.1823 15.2047 6.40454 15.7642 6.40454H35.4517C35.6381 6.40454 35.817 6.47862 35.9488 6.61048C36.0807 6.74234 36.1548 6.92119 36.1548 7.10767V9.21704H10.1392C9.2071 9.21816 8.31354 9.58891 7.65447 10.248C6.99541 10.907 6.62465 11.8006 6.62354 12.7327V29.6077C6.62612 30.3709 6.87961 31.1121 7.34494 31.717H4.51416C4.32768 31.717 4.14884 31.643 4.01698 31.5111C3.88511 31.3792 3.81104 31.2004 3.81104 31.0139ZM10.1392 31.717C9.57972 31.717 9.04319 31.4948 8.64761 31.0992C8.25202 30.7036 8.02979 30.1671 8.02979 29.6077V12.7327C8.02979 12.1732 8.25202 11.6367 8.64761 11.2411C9.04319 10.8455 9.57972 10.6233 10.1392 10.6233H36.8579C37.0444 10.6233 37.2232 10.6974 37.3551 10.8292C37.487 10.9611 37.561 11.1399 37.561 11.3264V17.6545H28.4204C27.861 17.6545 27.3244 17.8768 26.9289 18.2724C26.5333 18.6679 26.311 19.2045 26.311 19.7639V21.8733H19.9829C19.4235 21.8733 18.8869 22.0955 18.4914 22.4911C18.0958 22.8867 17.8735 23.4232 17.8735 23.9827V31.717H10.1392ZM34.0454 42.967H19.9829C19.7964 42.967 19.6176 42.893 19.4857 42.7611C19.3539 42.6292 19.2798 42.4504 19.2798 42.2639V23.9827C19.2798 23.7962 19.3539 23.6173 19.4857 23.4855C19.6176 23.3536 19.7964 23.2795 19.9829 23.2795H29.1235V26.7952C29.1235 27.3546 29.3458 27.8911 29.7414 28.2867C30.1369 28.6823 30.6735 28.9045 31.2329 28.9045H34.7485V42.2639C34.7485 42.4504 34.6745 42.6292 34.5426 42.7611C34.4107 42.893 34.2319 42.967 34.0454 42.967ZM30.5298 24.2738L33.7543 27.4983H31.2329C31.0464 27.4983 30.8676 27.4242 30.7357 27.2924C30.6039 27.1605 30.5298 26.9816 30.5298 26.7952V24.2738ZM42.4829 38.7483H36.1548V28.2014C36.1547 28.015 36.0806 27.8361 35.9488 27.7043L30.3238 22.0793C30.1919 21.9474 30.0131 21.8733 29.8267 21.8733H27.7173V19.7639C27.7173 19.5774 27.7914 19.3986 27.9232 19.2667C28.0551 19.1349 28.2339 19.0608 28.4204 19.0608H37.561V22.5764C37.561 23.1359 37.7833 23.6724 38.1789 24.068C38.5744 24.4636 39.111 24.6858 39.6704 24.6858H43.186V38.0452C43.186 38.2316 43.112 38.4105 42.9801 38.5424C42.8482 38.6742 42.6694 38.7483 42.4829 38.7483Z" fill="#999999"/>
<path d="M22.0923 31.717H31.936V33.1233H22.0923V31.717Z" fill="#999999"/>
<path d="M22.0923 37.342H31.936V38.7483H22.0923V37.342Z" fill="#999999"/>
</svg>
