<svg width="46" height="46" viewBox="0 0 46 46" fill="none" xmlns="http://www.w3.org/2000/svg">
<g clip-path="url(#clip0)">
<path d="M44.2968 36.9217L32.6893 44.3601C32.0139 44.7877 31.2317 45.0164 30.4323 45.0199H14.1458C10.1867 45.0199 9.11438 42.9879 9.11438 42.9879V42.7704H6.86487V33.7724H9.11438V33.8248C10.4266 31.8228 13.0211 31.1329 14.6557 30.9005H14.6631C15.1421 30.8258 15.6256 30.7831 16.1103 30.7729H16.4927C17.7846 30.7766 19.0343 31.2329 20.0245 32.0626C21.0081 32.9004 22.2567 33.3627 23.5487 33.3674H26.788C27.8925 33.3734 28.9087 33.9717 29.4499 34.9346L29.5024 35.0245C29.9003 35.7259 29.9283 36.578 29.5773 37.304C29.4803 37.5001 29.3567 37.6818 29.2099 37.8439H30.6271C30.8925 37.8467 31.1563 37.8037 31.407 37.7164L41.6198 34.1322L42.8645 33.6898C43.0433 33.6296 43.2308 33.5992 43.4194 33.5998C43.9579 33.6057 44.4604 33.8709 44.7691 34.3122C45.0553 34.72 45.1664 35.2253 45.0777 35.7155C44.989 36.2058 44.7078 36.6401 44.2968 36.9217Z" fill="white"/>
<path d="M41.2975 36.9216L29.69 44.3601C29.0146 44.7876 28.2324 45.0164 27.433 45.0199H14.1458C10.1867 45.0199 9.11438 42.9878 9.11438 42.9878V42.7704H6.86487V33.7723H9.11438V33.8248C10.4266 31.8227 13.0211 31.1328 14.6557 30.9004H14.6631C15.5324 31.0926 16.3425 31.4912 17.0251 32.0627C18.0088 32.9004 19.2573 33.3627 20.5494 33.3674H23.7887C24.8932 33.3735 25.9094 33.9718 26.4506 34.9346L26.5031 35.0246C27.0202 35.9298 26.9025 37.0641 26.2106 37.8439H27.6278C27.8932 37.8467 28.157 37.8037 28.4077 37.7164L29.5774 37.304C29.4804 37.5001 29.3568 37.6818 29.21 37.8439H30.6272C30.8926 37.8467 31.1564 37.8037 31.4071 37.7164L41.6199 34.1322C41.6757 34.1871 41.7259 34.2474 41.7699 34.3122C42.0561 34.72 42.1672 35.2253 42.0784 35.7155C41.9897 36.2057 41.7085 36.64 41.2975 36.9216Z" fill="white"/>
<path d="M45.1066 14.2765C45.1069 17.6574 43.764 20.8998 41.3734 23.2905C38.9827 25.6811 35.7403 27.0241 32.3594 27.0237C31.0384 27.0262 29.7252 26.8213 28.4677 26.4163L24.861 29.2732V24.5792C19.9965 21.0385 18.2706 14.5782 20.7212 9.0832C23.1719 3.58822 29.1314 0.555419 35.0161 1.80865C40.9008 3.06187 45.1076 8.25984 45.1066 14.2765Z" fill="#D7D7D7"/>
<path d="M2.36578 32.2727H8.36452C8.77866 32.2727 9.11433 32.6084 9.11433 33.0225V43.5203C9.11433 43.9344 8.77857 44.2701 8.36452 44.2701H2.36578C1.95164 44.2701 1.61597 43.9344 1.61597 43.5203V33.0225C1.61597 32.6085 1.95164 32.2727 2.36578 32.2727Z" fill="#D7D7D7"/>
<path d="M32.3594 9.02774C33.1877 9.02774 33.8592 8.35629 33.8592 7.52803C33.8592 6.69976 33.1877 6.02832 32.3594 6.02832C31.5312 6.02832 30.8597 6.69976 30.8597 7.52803C30.8597 8.35629 31.5312 9.02774 32.3594 9.02774Z" fill="white"/>
<path d="M30.8597 15.0264V19.5255H29.36V22.5249H35.3587V19.5255H33.859V12.0271H29.36V15.0264H30.8597Z" fill="white"/>
<path d="M45.1066 14.2766C45.1069 17.6575 43.764 20.8999 41.3734 23.2906C38.9827 25.6812 35.7403 27.0242 32.3594 27.0238C31.977 27.0238 31.5946 27.0088 31.2196 26.9713C37.8012 26.398 42.8532 20.8899 42.8572 14.2835C42.8611 7.67699 37.8155 2.16295 31.2346 1.58185C31.6084 1.5453 31.9838 1.52781 32.3594 1.5294C35.7403 1.52904 38.9827 2.87199 41.3734 5.26263C43.764 7.65327 45.1069 10.8957 45.1066 14.2766Z" fill="white"/>
<path d="M33.4626 26.9682C32.5297 26.8875 31.6088 26.7024 30.7173 26.4165L30.2032 26.8237C30.5422 26.881 30.8806 26.9398 31.2277 26.9703L31.2197 26.9714C31.2291 26.9723 31.2387 26.9719 31.2481 26.9727C31.6146 27.0043 31.9844 27.0239 32.3594 27.0239C32.7318 27.0239 33.0983 26.9994 33.4626 26.9682Z" fill="white"/>
<path d="M32.3594 1.5294C31.9838 1.52781 31.6084 1.5453 31.2346 1.58185L31.2578 1.58493C25.9603 2.04072 21.5032 5.73924 20.0781 10.8618C18.653 15.9844 20.5599 21.4533 24.8609 24.5794V29.2734L27.1104 27.4915V24.5794C22.8112 21.4548 20.904 15.9892 22.3258 10.8682C23.7477 5.74724 28.1998 2.04749 33.4945 1.58669C33.1199 1.55365 32.7426 1.5294 32.3594 1.5294Z" fill="white"/>
<path d="M42.8646 33.6901L41.6199 34.1325L31.6179 37.6428C31.569 37.7128 31.5161 37.7801 31.4595 37.8442H32.8767C33.142 37.8471 33.4058 37.804 33.6565 37.7167L43.8693 34.1325L44.3985 33.9445C44.1186 33.7257 43.7747 33.6048 43.4194 33.6001C43.2308 33.5995 43.0433 33.6299 42.8646 33.6901Z" fill="white"/>
<path d="M2.36578 44.2703H4.61529C4.20115 44.2703 3.86548 43.9347 3.86548 43.5205V33.0228C3.86548 32.6086 4.20124 32.2729 4.61529 32.2729H2.36578C1.95164 32.2729 1.61597 32.6086 1.61597 33.0228V43.5205C1.61597 43.9347 1.95164 44.2703 2.36578 44.2703Z" fill="white"/>
<path d="M0.866089 43.5203V33.0293C0.866528 32.8662 0.892538 32.7041 0.94324 32.5491C1.13208 31.9856 1.63497 31.5861 2.22661 31.5297C2.31588 31.523 2.39427 31.5222 2.41992 31.5229H8.36454V33.0226H2.41984C2.36298 33.0217 2.35885 33.0247 2.36571 33.023L2.36588 33.0235L2.36571 33.0227C2.36571 33.0227 2.36597 33.0236 2.36061 33.0208C2.36061 33.0208 2.37028 33.0152 2.36562 33.0293V43.5203H0.866089Z" fill="white"/>
<path d="M1.33107 38.2117C1.3736 38.2333 1.41912 38.2483 1.46613 38.2564C1.5156 38.2648 1.56569 38.2698 1.61586 38.2714C1.81437 38.2687 2.00452 38.191 2.14828 38.0539C2.43131 37.7554 2.43131 37.2877 2.14828 36.9892C2.07666 36.9215 1.99275 36.868 1.9011 36.8317C1.81085 36.7933 1.71393 36.7729 1.61586 36.7717C1.41736 36.7747 1.2273 36.8524 1.08345 36.9892C0.793473 37.2849 0.793473 37.7583 1.08345 38.0539L1.19584 38.144C1.23775 38.1724 1.28327 38.1952 1.33107 38.2117Z" fill="#999999"/>
<path d="M2.3658 45.02H8.36454C8.81215 45.0184 9.23526 44.8157 9.51715 44.468C10.8755 45.396 12.5006 45.8533 14.1435 45.7699H30.4298C31.3739 45.7666 32.2977 45.4961 33.0945 44.9897L44.7039 37.5495C45.2818 37.1689 45.6803 36.5699 45.8082 35.8899C45.9433 35.1877 45.7871 34.4608 45.3754 33.8761C44.7535 33.0041 43.6337 32.6425 42.6191 32.9861L31.1519 37.0094C30.9841 37.0681 30.8075 37.0974 30.6297 37.0958H30.4511C30.6804 36.28 30.5752 35.4065 30.1589 34.6684L30.1003 34.5622C29.4235 33.3695 28.1618 32.6285 26.7905 32.6184H23.551C22.434 32.6106 21.3552 32.2111 20.5025 31.4896C19.3783 30.5474 17.9595 30.0286 16.4927 30.0232H16.1126C15.9239 30.0232 12.0797 30.0583 9.59878 32.1738C9.3197 31.7667 8.85802 31.5233 8.36454 31.5228H2.41992C2.39418 31.5221 2.31588 31.5229 2.22661 31.5296C1.63435 31.5845 1.13076 31.9846 0.94324 32.549C0.892538 32.7041 0.866528 32.8661 0.866089 33.0293V34.5222C0.866089 34.9364 1.20185 35.272 1.6159 35.272C2.02995 35.272 2.36571 34.9364 2.36571 34.5222V33.0293C2.37045 33.0151 2.3607 33.0208 2.3607 33.0208C2.36597 33.0236 2.3658 33.0227 2.3658 33.0227L2.36588 33.0229C2.35938 33.0245 2.36377 33.0216 2.41984 33.0225H8.36445V43.5203L2.36571 43.5214V40.5209C2.36571 40.1068 2.02995 39.7711 1.6159 39.7711C1.20185 39.7711 0.866089 40.1068 0.866089 40.5209V43.5203C0.867055 44.3482 1.53796 45.0191 2.3658 45.02ZM16.1126 31.5229H16.4927C17.6082 31.528 18.6867 31.9235 19.5411 32.6407C20.6636 33.5875 22.0826 34.1102 23.551 34.1181H26.7905C27.6208 34.1197 28.3857 34.5692 28.7911 35.2937L28.8497 35.3999C29.146 35.9301 29.1316 36.5793 28.812 37.0958H25.121C23.8601 37.0994 22.631 37.4917 21.601 38.2191L21.1514 38.5347C20.9321 38.6886 20.8117 38.9476 20.8352 39.2144C20.8588 39.4812 21.0229 39.7151 21.2658 39.828C21.5087 39.9409 21.7933 39.9158 22.0125 39.7619L22.4607 39.4478C23.2388 38.897 24.1677 38.5994 25.121 38.5954H30.6298C30.98 38.5971 31.3279 38.5382 31.6579 38.4212L43.1084 34.4037C43.4953 34.2722 43.9225 34.413 44.1556 34.7486C44.3297 34.9983 44.3947 35.3082 44.3357 35.6068C44.2874 35.8853 44.127 36.1317 43.892 36.2885L32.2907 43.7236C31.7344 44.0776 31.0894 44.267 30.43 44.2702H14.1435C11.2767 44.2702 10.1607 43.1429 9.86416 42.7599V34.0602C11.6956 31.5628 16.0687 31.5229 16.1126 31.5229Z" fill="#999999"/>
<path d="M5.14771 41.0533C5.21388 40.9804 5.26713 40.8966 5.30518 40.8058C5.34358 40.7156 5.36397 40.6189 5.3652 40.5209C5.3623 40.3224 5.28462 40.1323 5.14771 39.9885C4.85422 39.6974 4.38059 39.6987 4.08868 39.9913C3.79677 40.284 3.79677 40.7576 4.08868 41.0503C4.38059 41.343 4.85422 41.3443 5.14771 41.0533Z" fill="#999999"/>
<path d="M32.3594 9.7776C33.6017 9.7776 34.6089 8.77041 34.6089 7.52808C34.6089 6.28575 33.6017 5.27856 32.3594 5.27856C31.117 5.27856 30.1099 6.28575 30.1099 7.52808C30.1112 8.76988 31.1175 9.77628 32.3594 9.7776ZM32.3594 6.77827C32.7735 6.77827 33.1092 7.11394 33.1092 7.52808C33.1092 7.94222 32.7735 8.27789 32.3594 8.27789C31.9452 8.27789 31.6096 7.94213 31.6096 7.52808C31.6099 7.11412 31.9454 6.77862 32.3594 6.77827Z" fill="#999999"/>
<path d="M35.3586 18.7755H34.6088V12.027C34.6089 11.8281 34.5299 11.6374 34.3892 11.4967C34.2485 11.356 34.0579 11.2771 33.8589 11.2771H29.3599C29.161 11.277 28.9703 11.356 28.8296 11.4967C28.689 11.6373 28.61 11.8281 28.61 12.027V15.0263C28.6099 15.2252 28.6889 15.4159 28.8296 15.5566C28.9702 15.6972 29.1609 15.7762 29.3599 15.7762H30.1097V18.7755H29.3599C29.161 18.7755 28.9703 18.8545 28.8296 18.9951C28.689 19.1357 28.61 19.3265 28.61 19.5254V22.5248C28.6099 22.7236 28.6889 22.9144 28.8296 23.0551C28.9702 23.1957 29.1609 23.2747 29.3599 23.2747H35.3586C35.5575 23.2748 35.7482 23.1958 35.8889 23.0551C36.0295 22.9145 36.1085 22.7237 36.1085 22.5248V19.5254C36.1086 19.3266 36.0296 19.1358 35.8889 18.9951C35.7482 18.8545 35.5575 18.7755 35.3586 18.7755ZM34.6088 21.7749H30.1098V20.2752H30.8596C31.0584 20.2753 31.2492 20.1963 31.3899 20.0556C31.5306 19.9149 31.6095 19.7242 31.6095 19.5253V15.0262C31.6096 14.8274 31.5306 14.6366 31.3899 14.4959C31.2493 14.3553 31.0585 14.2763 30.8596 14.2763H30.1098V12.7766H33.1091V19.5252C33.109 19.724 33.188 19.9148 33.3287 20.0555C33.4694 20.1962 33.6601 20.2751 33.859 20.2751H34.6088V21.7749Z" fill="#999999"/>
<path d="M32.3594 0.779541C26.585 0.778135 21.4496 4.45109 19.5851 9.91618C17.7205 15.3813 19.54 21.427 24.1111 24.9553V29.2734C24.1111 29.5611 24.2756 29.8234 24.5346 29.9485C24.7935 30.0737 25.1012 30.0397 25.3266 29.861L28.6247 27.2487C33.6946 28.708 39.1499 27.0799 42.5906 23.0806C46.0313 19.0813 46.8267 13.4441 44.6268 8.6489C42.4269 3.85382 37.635 0.779893 32.3594 0.779541ZM32.3594 26.274C31.1166 26.2761 29.8811 26.0834 28.698 25.7029C28.4594 25.6266 28.1985 25.6738 28.0016 25.8289L25.6108 27.7229V24.5796C25.6109 24.3393 25.4957 24.1135 25.3011 23.9726C20.5356 20.4986 19.0034 14.0752 21.6877 8.8242C24.372 3.57316 30.4757 1.05326 36.0826 2.88152C41.6894 4.70978 45.1347 10.3433 44.2076 16.1673C43.2806 21.9913 38.2567 26.2769 32.3594 26.274Z" fill="#999999"/>
</g>
<defs>
<clipPath id="clip0">
<rect x="0.861328" y="0.779541" width="45" height="45" fill="white"/>
</clipPath>
</defs>
</svg>
