<svg width="83" height="87" viewBox="0 0 83 87" fill="none" xmlns="http://www.w3.org/2000/svg">
<path d="M80.8584 14.2945C73.6044 -2.76558 58.7143 0.336307 58.7143 0.336307C58.7143 0.336307 13.3566 2.64046 8.31687 18.9473C2.01721 39.3309 14.6167 55.2833 14.6167 55.2833C14.6167 55.2833 28.1703 78.104 41.1514 77.4393C54.1325 76.7747 60.2471 68.0201 60.2471 68.0201C60.2471 68.0201 73.2224 43.4667 76.6586 38.4447C79.5857 35.3428 85.6683 25.6066 80.8584 14.2945Z" fill="#F9F9F9"/>
<path d="M63.3997 34.0161H6.02466C5.46159 34.0178 4.92206 34.2422 4.52391 34.6404C4.12576 35.0385 3.90134 35.578 3.89966 36.1411V76.5161C3.90134 77.0792 4.12576 77.6187 4.52391 78.0169C4.92206 78.415 5.46159 78.6394 6.02466 78.6411H35.7747V46.7661L44.2747 38.2661H65.5247V36.1411C65.523 35.578 65.2985 35.0385 64.9004 34.6404C64.5022 34.2422 63.9627 34.0178 63.3997 34.0161ZM20.8997 53.1411H19.8372V59.5161L16.6497 61.6411L13.4622 59.5161V53.1411H12.3997V48.8911H13.4622V42.5161H19.8372V48.8911H20.8997V53.1411Z" fill="#F0DDDB"/>
<path d="M63.3997 32.9536H50.6497V23.3911C50.6497 22.5457 50.3138 21.735 49.7161 21.1372C49.1183 20.5394 48.3075 20.2036 47.4622 20.2036H21.9622C21.1168 20.2036 20.306 20.5394 19.7083 21.1372C19.1105 21.735 18.7747 22.5457 18.7747 23.3911V32.9536H6.02466C5.17928 32.9536 4.36853 33.2894 3.77076 33.8872C3.17298 34.485 2.83716 35.2957 2.83716 36.1411V76.5161C2.83716 77.3615 3.17298 78.1722 3.77076 78.77C4.36853 79.3678 5.17928 79.7036 6.02466 79.7036H34.7122V82.8911C34.7122 83.1729 34.8241 83.4432 35.0234 83.6424C35.2226 83.8417 35.4929 83.9536 35.7747 83.9536H65.5247C65.8065 83.9536 66.0767 83.8417 66.276 83.6424C66.4752 83.4432 66.5872 83.1729 66.5872 82.8911V36.1411C66.5872 35.2957 66.2513 34.485 65.6536 33.8872C65.0558 33.2894 64.245 32.9536 63.3997 32.9536ZM20.8997 23.3911C20.8997 23.1093 21.0116 22.8391 21.2109 22.6398C21.4101 22.4406 21.6804 22.3286 21.9622 22.3286H47.4622C47.744 22.3286 48.0142 22.4406 48.2135 22.6398C48.4127 22.8391 48.5247 23.1093 48.5247 23.3911V32.9536H46.3997V25.5161C46.3997 25.2343 46.2877 24.9641 46.0885 24.7648C45.8892 24.5656 45.6189 24.4536 45.3372 24.4536H24.0872C23.8054 24.4536 23.5351 24.5656 23.3359 24.7648C23.1366 24.9641 23.0247 25.2343 23.0247 25.5161V32.9536H20.8997V23.3911ZM44.2747 32.9536H25.1497V26.5786H44.2747V32.9536ZM6.02466 35.0786H63.3997C63.6815 35.0786 63.9517 35.1906 64.151 35.3898C64.3502 35.5891 64.4622 35.8593 64.4622 36.1411V37.2036H44.2747V37.2132C44.1357 37.2114 43.9978 37.2372 43.8689 37.289C43.74 37.3408 43.6226 37.4176 43.5235 37.5149L35.0235 46.0149C34.8277 46.2157 34.7192 46.4857 34.7217 46.7661H34.7122V49.9536H21.9622V48.8911C21.9622 48.6093 21.8502 48.3391 21.651 48.1398C21.4517 47.9406 21.1815 47.8286 20.8997 47.8286V42.5161C20.8997 42.2343 20.7877 41.9641 20.5885 41.7648C20.3892 41.5656 20.119 41.4536 19.8372 41.4536H13.4622C13.1804 41.4536 12.9101 41.5656 12.7109 41.7648C12.5116 41.9641 12.3997 42.2343 12.3997 42.5161V47.8286C12.1179 47.8286 11.8476 47.9406 11.6484 48.1398C11.4491 48.3391 11.3372 48.6093 11.3372 48.8911V49.9536H4.96216V36.1411C4.96216 35.8593 5.0741 35.5891 5.27336 35.3898C5.47261 35.1906 5.74287 35.0786 6.02466 35.0786ZM43.2122 40.831V45.7036H38.3395L43.2122 40.831ZM19.8372 52.0786H13.4622V49.9536H19.8372V52.0786ZM18.7747 47.8286H14.5247V43.5786H18.7747V47.8286ZM14.5247 54.2036H18.7747V58.9477L16.6497 60.3661L14.5247 58.9498V54.2036ZM6.02466 77.5786C5.74287 77.5786 5.47261 77.4667 5.27336 77.2674C5.0741 77.0682 4.96216 76.7979 4.96216 76.5161V52.0786H11.3372V53.1411C11.3372 53.4229 11.4491 53.6932 11.6484 53.8924C11.8476 54.0917 12.1179 54.2036 12.3997 54.2036V59.5161C12.3996 59.691 12.4428 59.8632 12.5253 60.0174C12.6077 60.1716 12.727 60.3031 12.8725 60.4001L16.06 62.5251C16.2346 62.6416 16.4398 62.7038 16.6497 62.7038C16.8596 62.7038 17.0647 62.6416 17.2393 62.5251L20.4268 60.4001C20.5723 60.3031 20.6916 60.1716 20.7741 60.0174C20.8565 59.8632 20.8997 59.691 20.8997 59.5161V54.2036C21.1815 54.2036 21.4517 54.0917 21.651 53.8924C21.8502 53.6932 21.9622 53.4229 21.9622 53.1411V52.0786H34.7122V77.5786H6.02466ZM64.4622 81.8286H36.8372V47.8286H44.2747C44.5564 47.8286 44.8267 47.7167 45.026 47.5174C45.2252 47.3182 45.3372 47.0479 45.3372 46.7661V39.3286H64.4622V81.8286Z" fill="#C6392B"/>
<path d="M47.4622 43.5786H51.7122V45.7036H47.4622V43.5786Z" fill="#C6392B"/>
<path d="M53.8372 43.5786H62.3372V45.7036H53.8372V43.5786Z" fill="#C6392B"/>
<path d="M38.9622 49.9536H51.7122V52.0786H38.9622V49.9536Z" fill="#C6392B"/>
<path d="M53.8372 49.9536H62.3372V52.0786H53.8372V49.9536Z" fill="#C6392B"/>
<path d="M38.9622 56.3286H62.3372V58.4536H38.9622V56.3286Z" fill="#C6392B"/>
<path d="M38.9622 62.7036H62.3372V64.8286H38.9622V62.7036Z" fill="#C6392B"/>
<path d="M38.9622 69.0786H62.3372V71.2036H38.9622V69.0786Z" fill="#C6392B"/>
<path d="M38.9622 75.4536H43.2122V77.5786H38.9622V75.4536Z" fill="#C6392B"/>
<path d="M45.3372 75.4536H49.5872V77.5786H45.3372V75.4536Z" fill="#C6392B"/>
<path d="M51.7122 75.4536H55.9622V77.5786H51.7122V75.4536Z" fill="#C6392B"/>
<path d="M58.0872 75.4536H62.3372V77.5786H58.0872V75.4536Z" fill="#C6392B"/>
</svg>
