<svg width="69" height="69" viewBox="0 0 69 69" fill="none" xmlns="http://www.w3.org/2000/svg">
<g clip-path="url(#clip0)">
<path d="M41.4098 57.4141C41.4391 57.6487 41.4768 57.88 41.5232 58.1091C41.4768 57.88 41.4402 57.6476 41.4098 57.4141Z" fill="#9BC9FF"/>
<path d="M41.6001 58.4987C41.6543 58.7394 41.7135 58.9751 41.7894 59.2081C41.7191 58.9751 41.6499 58.7394 41.6001 58.4987Z" fill="#9BC9FF"/>
<path d="M51.7114 44.7008C51.9892 44.677 52.2681 44.6598 52.5504 44.6576C52.2726 44.6598 51.9925 44.677 51.7114 44.7008Z" fill="#9BC9FF"/>
<path d="M41.7816 52.7099C41.5824 53.3939 41.4457 54.0939 41.3721 54.8023C41.9343 49.4815 46.1384 45.2779 51.4592 44.7157C50.7486 44.7882 50.0464 44.926 49.3613 45.1258C45.7123 46.206 42.8596 49.0609 41.7816 52.7099Z" fill="#9BC9FF"/>
<path d="M41.3102 55.8955C41.3102 55.6089 41.3296 55.3289 41.3533 55.0444C41.334 55.33 41.3168 55.6144 41.3102 55.8955Z" fill="#9BC9FF"/>
<path d="M54.765 44.863C54.5381 44.8198 54.3046 44.7822 54.0699 44.7495C54.3046 44.7822 54.5359 44.8198 54.765 44.863Z" fill="#9BC9FF"/>
<path d="M53.6633 44.7063C53.4126 44.6847 53.1614 44.6736 52.9073 44.667C53.1658 44.6736 53.4187 44.6847 53.6633 44.7063Z" fill="#9BC9FF"/>
<path d="M41.3234 56.2537C41.3306 56.5088 41.3405 56.7617 41.3643 57.0118C41.3416 56.7617 41.3306 56.5088 41.3234 56.2537Z" fill="#9BC9FF"/>
<path d="M42.2619 60.5197C42.1203 60.1998 41.9969 59.87 41.8856 59.5347C41.9969 59.87 42.1203 60.1998 42.2619 60.5197Z" fill="#9BC9FF"/>
<path d="M55.863 45.1313C55.6366 45.0621 55.3959 44.9979 55.1569 44.9431C55.3959 44.9929 55.6306 45.0621 55.863 45.1313Z" fill="#9BC9FF"/>
<path d="M57.1767 45.6049C56.8568 45.4633 56.527 45.3399 56.1917 45.2286C56.527 45.3399 56.8568 45.4633 57.1767 45.6049Z" fill="#9BC9FF"/>
<path d="M54.91 1.58691H19.777V12.9201C19.777 14.1719 18.7621 15.1868 17.5104 15.1868H5.04382V58.253C5.04382 59.5048 6.05872 60.5197 7.31047 60.5197H42.262C42.1203 60.1998 41.9969 59.87 41.8857 59.5347C41.8508 59.4273 41.822 59.3172 41.7894 59.2082C41.7191 58.9752 41.6544 58.7395 41.6001 58.4987C41.5708 58.3709 41.5459 58.2403 41.521 58.1091C41.4762 57.8823 41.4385 57.651 41.4075 57.4141C41.3904 57.2807 41.3732 57.1468 41.3622 57.0118C41.3384 56.7617 41.3284 56.5088 41.3212 56.2537C41.3212 56.1646 41.3079 56.0771 41.3079 55.9864C41.3079 55.956 41.3079 55.9261 41.3079 55.8956C41.3079 55.6145 41.3267 55.329 41.3505 55.0445C41.3577 54.9643 41.3577 54.8813 41.3655 54.8022C41.4385 54.0938 41.5758 53.3938 41.7744 52.7098C42.8535 49.0608 45.7073 46.2059 49.3568 45.1269C50.0419 44.9271 50.7442 44.7893 51.4542 44.7168C51.5383 44.7074 51.6246 44.7074 51.7093 44.7008C51.9904 44.677 52.2759 44.6598 52.5482 44.6576H52.6412C52.7314 44.6576 52.8188 44.6703 52.9095 44.6714C53.1636 44.6781 53.4148 44.6897 53.6655 44.7107C53.8005 44.7234 53.9339 44.7406 54.0678 44.7572C54.3024 44.7871 54.5337 44.8242 54.7623 44.8706C54.894 44.8955 55.0246 44.9204 55.1546 44.9514C55.3937 45.0057 55.6283 45.0643 55.8607 45.1396C55.9742 45.1722 56.0876 45.2005 56.1894 45.237C56.5292 45.3504 56.8546 45.4716 57.1744 45.6133V3.85356C57.1744 2.60237 56.1607 1.58802 54.91 1.58691Z" fill="#F0DDDB"/>
<path d="M41.7893 59.2081C41.822 59.3216 41.8507 59.4273 41.8856 59.5346C41.8507 59.4273 41.822 59.3171 41.7893 59.2081Z" fill="#9BC9FF"/>
<path d="M41.521 58.1091C41.5459 58.2403 41.5708 58.3709 41.6001 58.4987C41.5708 58.3665 41.5459 58.2403 41.521 58.1091Z" fill="#9BC9FF"/>
<path d="M56.1916 45.2286C56.0837 45.1926 55.973 45.1644 55.8629 45.1312C55.973 45.1644 56.0837 45.1926 56.1916 45.2286Z" fill="#9BC9FF"/>
<path d="M41.3234 56.2537C41.3234 56.1408 41.3134 56.0157 41.3145 55.8956V55.9864C41.3101 56.0771 41.3211 56.1646 41.3234 56.2537Z" fill="#9BC9FF"/>
<path d="M55.1568 44.9432C55.0268 44.9127 54.8962 44.8878 54.765 44.8629C54.8962 44.8878 55.0235 44.9138 55.1568 44.9432Z" fill="#9BC9FF"/>
<path d="M52.5504 44.6531C52.6716 44.6531 52.7917 44.6597 52.9118 44.662C52.821 44.662 52.7341 44.6487 52.6434 44.6487C52.6113 44.6531 52.582 44.6531 52.5504 44.6531Z" fill="#9BC9FF"/>
<path d="M41.3644 57.0118C41.376 57.1469 41.3926 57.2808 41.4098 57.4142C41.3926 57.2808 41.376 57.1469 41.3644 57.0118Z" fill="#9BC9FF"/>
<path d="M51.7114 44.7008C51.6267 44.7074 51.5404 44.7074 51.4563 44.7169C51.5415 44.7074 51.6234 44.7074 51.7114 44.7008Z" fill="#9BC9FF"/>
<path d="M41.3721 54.8021C41.3643 54.8813 41.3643 54.9643 41.3577 55.0445C41.3643 54.9665 41.3643 54.8835 41.3721 54.8021Z" fill="#9BC9FF"/>
<path d="M54.0699 44.7528C53.9365 44.7362 53.8026 44.719 53.6676 44.7063C53.8026 44.719 53.9365 44.7362 54.0699 44.7528Z" fill="#9BC9FF"/>
<path d="M58.31 44.8934V3.85358C58.31 1.97596 56.7877 0.453613 54.9101 0.453613H19.7771C19.7533 0.453613 19.7306 0.464681 19.7068 0.467448C19.6166 0.472982 19.5275 0.489583 19.4417 0.517252C19.403 0.526659 19.3653 0.53828 19.3283 0.552115C19.2093 0.600812 19.0997 0.669432 19.004 0.755206L4.2708 14.3551C4.17008 14.4519 4.08874 14.5676 4.03063 14.6949C4.01348 14.7319 3.99964 14.7696 3.98747 14.8083C3.95039 14.9096 3.92826 15.0158 3.92161 15.1232C3.92161 15.147 3.90723 15.1685 3.90723 15.1923V58.2531C3.90723 60.1307 5.42902 61.653 7.30719 61.653H41.5504C44.0018 66.4614 49.27 69.1447 54.6007 68.3002C59.9314 67.4552 64.1122 63.2744 64.9567 57.9437C65.8017 52.613 63.1183 47.3448 58.31 44.8934ZM18.6437 4.17565V12.9202C18.6437 13.546 18.1363 14.0535 17.5104 14.0535H7.94303L18.6437 4.17565ZM7.31051 59.3864C6.68464 59.3864 6.17719 58.8789 6.17719 58.2531V16.3201H17.5104C19.388 16.3201 20.9104 14.7978 20.9104 12.9202V2.72026H54.9101C55.5359 2.72026 56.0434 3.22771 56.0434 3.85358V43.9936C55.9676 43.972 55.889 43.9653 55.8165 43.946C55.397 43.8336 54.9709 43.7451 54.5415 43.6798C54.4281 43.6627 54.3152 43.6411 54.2084 43.6278C53.6893 43.5592 53.1669 43.5232 52.6434 43.5199H52.5289C52.0153 43.526 51.5029 43.5636 50.9943 43.6333C50.8493 43.6516 50.7055 43.6754 50.5616 43.6992C50.1836 43.7639 49.8112 43.8453 49.4449 43.9427C49.3115 43.9764 49.1754 43.9914 49.0415 44.0301C45.0239 45.2215 41.8818 48.3658 40.6937 52.3845C40.6561 52.5151 40.6411 52.649 40.6074 52.7801C40.51 53.1487 40.427 53.5239 40.3639 53.9057C40.3401 54.0463 40.3174 54.1868 40.2992 54.3285C40.2245 54.8514 40.1835 55.3788 40.1769 55.9073V55.9161V55.9864C40.1818 56.5116 40.2195 57.0356 40.2903 57.5558C40.3036 57.6615 40.323 57.7655 40.339 57.8701C40.4054 58.3062 40.4951 58.7378 40.6085 59.1645C40.6279 59.237 40.6345 59.3139 40.655 59.3908L7.31051 59.3864ZM52.6434 66.1863C48.5882 66.1869 44.9182 63.7836 43.2979 60.0665C43.1673 59.7715 43.0555 59.4716 42.9581 59.1678C42.9161 59.0372 42.8818 58.905 42.8447 58.7733C42.796 58.6012 42.7473 58.4335 42.7075 58.2553C42.6676 58.0777 42.6405 57.9288 42.6123 57.7655C42.5841 57.6023 42.5614 57.4645 42.542 57.3123C42.5193 57.1419 42.5011 56.9703 42.4878 56.7988C42.4762 56.6438 42.4695 56.4861 42.464 56.3301C42.4579 56.1735 42.4524 55.9897 42.4546 55.8276C42.4568 55.6655 42.4695 55.4878 42.4806 55.3213C42.49 55.1713 42.4955 55.0219 42.5116 54.868C43.0406 50.1317 46.7748 46.3908 51.5101 45.8535C51.6733 45.8352 51.8377 45.8286 52.002 45.8192C52.1664 45.8103 52.3092 45.7976 52.4641 45.7954C52.6401 45.7954 52.8155 45.7954 52.9898 45.8048C53.1398 45.8048 53.2892 45.8159 53.4436 45.8275C53.619 45.8408 53.795 45.859 53.9693 45.8817C54.1187 45.9011 54.2676 45.926 54.4159 45.952C54.5642 45.978 54.7446 46.0095 54.9067 46.0472C55.0866 46.0881 55.2659 46.1379 55.4435 46.1899C55.5686 46.2254 55.6942 46.2569 55.8165 46.2978C56.1236 46.3986 56.4274 46.512 56.7235 46.6443C61.1417 48.5811 63.5992 53.3485 62.6131 58.071C61.6275 62.7936 57.4678 66.1797 52.6434 66.1863Z" fill="#C6392B"/>
<path d="M14.1104 32.1867H48.11C48.7359 32.1867 49.2434 31.6792 49.2434 31.0534C49.2434 30.4275 48.7359 29.92 48.11 29.92H14.1104C13.4845 29.92 12.9771 30.4275 12.9771 31.0534C12.9771 31.6792 13.4845 32.1867 14.1104 32.1867Z" fill="#F9F9F9"/>
<path d="M14.1104 38.9866H48.11C48.7359 38.9866 49.2434 38.4792 49.2434 37.8533C49.2434 37.2274 48.7359 36.72 48.11 36.72H14.1104C13.4845 36.72 12.9771 37.2274 12.9771 37.8533C12.9771 38.4792 13.4845 38.9866 14.1104 38.9866Z" fill="#F9F9F9"/>
<path d="M14.1104 45.7865H42.4434C43.0693 45.7865 43.5767 45.2791 43.5767 44.6532C43.5767 44.0273 43.0693 43.5199 42.4434 43.5199H14.1104C13.4845 43.5199 12.9771 44.0273 12.9771 44.6532C12.9771 45.2791 13.4845 45.7865 14.1104 45.7865Z" fill="#F9F9F9"/>
<path d="M37.9101 50.3198H14.1104C13.4845 50.3198 12.9771 50.8273 12.9771 51.4531C12.9771 52.079 13.4845 52.5865 14.1104 52.5865H37.9101C38.536 52.5865 39.0435 52.079 39.0435 51.4531C39.0435 50.8273 38.536 50.3198 37.9101 50.3198Z" fill="#F9F9F9"/>
<path d="M23.177 25.3866H48.1101C48.736 25.3866 49.2434 24.8792 49.2434 24.2533C49.2434 23.6274 48.736 23.12 48.1101 23.12H23.177C22.5512 23.12 22.0437 23.6274 22.0437 24.2533C22.0437 24.8792 22.5512 25.3866 23.177 25.3866Z" fill="#F9F9F9"/>
<path d="M14.1104 25.3867H18.6437C19.2696 25.3867 19.7771 24.8792 19.7771 24.2533C19.7771 23.6274 19.2696 23.12 18.6437 23.12H14.1104C13.4845 23.12 12.9771 23.6274 12.9771 24.2533C12.9771 24.8792 13.4845 25.3867 14.1104 25.3867Z" fill="#F9F9F9"/>
<path d="M58.0583 51.2357L50.3768 58.9172L47.5036 56.0441C47.0587 55.6146 46.352 55.6207 45.9148 56.0579C45.4776 56.4951 45.4716 57.2023 45.901 57.6467L49.5755 61.3212C50.0182 61.7633 50.7354 61.7633 51.1781 61.3212L59.6609 52.8383C60.0904 52.3934 60.0843 51.6867 59.6471 51.2495C59.2099 50.8124 58.5033 50.8063 58.0583 51.2357Z" fill="#C6392B"/>
</g>
<defs>
<clipPath id="clip0">
<rect x="0.506348" y="0.453613" width="68" height="68" fill="white"/>
</clipPath>
</defs>
</svg>
