<svg width="72" height="84" viewBox="0 0 72 84" fill="none" xmlns="http://www.w3.org/2000/svg">
<path d="M69.6287 11.1603C63.1464 -1.97503 49.8405 0.413247 49.8405 0.413247C49.8405 0.413247 9.30854 2.18731 4.80499 14.7427C-0.824442 30.4368 10.4345 42.7192 10.4345 42.7192C10.4345 42.7192 22.5462 60.2899 34.1462 59.7781C45.7462 59.2663 54.1051 46.9839 54.1051 46.9839C54.1051 46.9839 62.8051 33.6211 65.8757 29.7545C68.4914 27.3662 73.9269 19.8699 69.6287 11.1603Z" fill="#F9F9F9"/>
<g clip-path="url(#clip0)">
<path d="M63.0712 26.3428L62.1693 25.4415C55.8198 19.0854 45.5183 19.0854 39.1688 25.4415L34.9653 29.645L30.7613 25.4415C24.4118 19.0854 14.1103 19.0854 7.76083 25.4415L6.85895 26.3428C0.503398 32.6929 0.503398 42.9944 6.85895 49.3439L34.9653 77.4497L63.0712 49.3439C69.4267 42.9944 69.4267 32.6929 63.0712 26.3428ZM60.885 37.6799H55.2503V43.3146H50.7425V37.6799H45.1078V33.1722H50.7425V27.5375H55.2503V33.1722H60.885V37.6799Z" fill="#F0DDDB"/>
<path d="M34.9654 78.5766C34.6666 78.5777 34.3804 78.46 34.1686 78.2498L6.06218 50.1406C2.79857 46.8803 0.965088 42.4567 0.965088 37.8433C0.965088 33.2305 2.79857 28.8063 6.06218 25.546L6.96407 24.6447C10.2244 21.3811 14.648 19.5476 19.2614 19.5476C23.8742 19.5476 28.2984 21.3811 31.5581 24.6447L34.9654 28.0514L38.372 24.6447C41.6324 21.3811 46.0559 19.5476 50.6688 19.5476C55.2822 19.5476 59.7058 21.3811 62.9661 24.6447L63.868 25.546C67.1316 28.8063 68.9651 33.2305 68.9651 37.8433C68.9651 42.4567 67.1316 46.8803 63.868 50.1406L35.7616 78.2498C35.5497 78.46 35.2636 78.5777 34.9654 78.5766ZM19.2614 21.8114C15.2455 21.8042 11.3931 23.3973 8.55543 26.2383L7.65355 27.1396C1.74921 33.056 1.74921 42.6356 7.65355 48.5515L34.9654 75.8561L62.2744 48.5471C68.1787 42.6312 68.1787 33.0511 62.2744 27.1352L61.3725 26.2339C55.4566 20.329 45.8771 20.329 39.9607 26.2339L35.7572 30.4373C35.3175 30.877 34.6038 30.877 34.1636 30.4373L29.9602 26.2339C27.123 23.3967 23.2733 21.8059 19.2614 21.8114Z" fill="#C6392B"/>
<path d="M9.98059 37.8432H7.7267C7.7212 35.0215 8.84539 32.3153 10.8484 30.3277L11.7502 29.4264C13.7383 27.4245 16.4445 26.302 19.2657 26.3091V28.563C17.0427 28.5575 14.9099 29.4423 13.3438 31.0199L12.4419 31.9213C10.8632 33.4868 9.97674 35.6196 9.98059 37.8432Z" fill="#F9F9F9"/>
<path d="M55.2502 44.4415H50.7425C50.1196 44.4415 49.6155 43.9369 49.6155 43.3145V38.8068H45.1078C44.4849 38.8068 43.9808 38.3022 43.9808 37.6798V33.172C43.9808 32.5497 44.4849 32.0451 45.1078 32.0451H49.6155V27.5373C49.6155 26.915 50.1196 26.4104 50.7425 26.4104H55.2502C55.8726 26.4104 56.3772 26.915 56.3772 27.5373V32.0451H60.8849C61.5073 32.0451 62.0119 32.5497 62.0119 33.172V37.6798C62.0119 38.3022 61.5073 38.8068 60.8849 38.8068H56.3772V43.3145C56.3772 43.9369 55.8726 44.4415 55.2502 44.4415ZM51.8694 42.1876H54.1233V37.6798C54.1233 37.0575 54.6273 36.5529 55.2502 36.5529H59.758V34.299H55.2502C54.6273 34.299 54.1233 33.7944 54.1233 33.172V28.6643H51.8694V33.172C51.8694 33.7944 51.3648 34.299 50.7425 34.299H46.2347V36.5529H50.7425C51.3648 36.5529 51.8694 37.0575 51.8694 37.6798V42.1876Z" fill="#F9F9F9"/>
</g>
<defs>
<clipPath id="clip0">
<rect x="0.965088" y="15.0786" width="68" height="68" fill="white"/>
</clipPath>
</defs>
</svg>
