<svg width="137" height="77" viewBox="0 0 137 77" fill="none" xmlns="http://www.w3.org/2000/svg">
<g clip-path="url(#clip0)">
<path d="M2.23987 56.0446H3.48954L4.98422 58.1128C5.15023 58.339 5.30458 58.5734 5.44668 58.8151H5.46408C5.59554 58.5586 5.74072 58.3093 5.899 58.0681L7.24 56.0446H8.49982V61.9714H7.11388V58.949C7.11388 58.7331 7.11388 58.4898 7.12258 58.3099H7.11388C7.05879 58.4352 6.81523 58.7863 6.7152 58.9389L5.74533 60.3969H5.13934L4.03464 58.8856C3.88923 58.7026 3.75605 58.5103 3.63596 58.3099H3.61857C3.62726 58.5071 3.62726 58.7417 3.62726 58.9029V61.97H2.23987V56.0446Z" fill="#8C939F"/>
<path d="M16.3255 56.0172H17.4679L19.9412 61.9714H18.4552L17.884 60.5595H15.9472L15.4035 61.9714H13.9799L16.3255 56.0172ZM17.4679 59.4628L17.1867 58.6438C17.0504 58.2394 16.9779 57.9875 16.933 57.7976H16.9156C16.8411 58.0884 16.7472 58.3741 16.6343 58.6525L16.3357 59.4628H17.4679Z" fill="#8C939F"/>
<path d="M25.7125 56.0445H27.3797C27.8482 56.0272 28.3149 56.1101 28.7482 56.2877C29.418 56.5928 29.7906 57.1872 29.7906 58.0321C29.7906 58.7157 29.492 59.48 28.5496 59.8312C28.1328 59.9726 27.694 60.0399 27.2536 60.0298H27.0999V61.9728H25.7139L25.7125 56.0445ZM27.3348 58.923C27.5359 58.9322 27.7366 58.8984 27.9233 58.8237C28.2133 58.6884 28.3496 58.4092 28.3496 58.0321C28.3563 57.8814 28.3221 57.7317 28.2504 57.5988C28.1787 57.4658 28.0722 57.3545 27.9422 57.2765C27.7454 57.1797 27.5264 57.136 27.3072 57.1498H27.0984V58.9215L27.3348 58.923Z" fill="#8C939F"/>
<path d="M36.4449 56.0446H37.8381V60.8114H39.8866V61.9714H36.4449V56.0446Z" fill="#8C939F"/>
<path d="M45.9421 56.0446H49.5302L49.1764 57.2046H47.328V58.4006H49.204V59.5606H47.328V60.8114H49.5113V61.9714H45.9421V56.0446Z" fill="#8C939F"/>
<path d="M67.475 61.5583C66.8449 61.8992 66.1368 62.0727 65.4193 62.062C63.3534 62.062 62.2835 60.8026 62.2835 59.0669C62.2835 57.3671 63.552 55.9811 65.573 55.9811C66.1297 55.9682 66.6837 56.0631 67.2039 56.2604V57.5197C66.7132 57.2595 66.1655 57.1236 65.6092 57.1239C64.3233 57.1239 63.7608 58.0321 63.7608 59.0482C63.7608 60.155 64.4683 60.9192 65.5904 60.9192C66.1239 60.9201 66.6461 60.7671 67.0937 60.4788L67.475 61.5583Z" fill="#8C939F"/>
<path d="M73.3566 59.0209C73.3566 57.2218 74.6164 55.9812 76.4373 55.9812C78.2582 55.9812 79.518 57.2218 79.518 59.0209C79.518 60.82 78.2582 62.0606 76.4373 62.0606C74.6164 62.0606 73.3566 60.82 73.3566 59.0209ZM78.0407 59.0209C78.0407 57.7616 77.3796 57.1225 76.4373 57.1225C75.495 57.1225 74.8339 57.7616 74.8339 59.0209C74.8339 60.2802 75.495 60.9193 76.4373 60.9193C77.3796 60.9193 78.0451 60.2802 78.0451 59.0209H78.0407Z" fill="#8C939F"/>
<path d="M85.8852 60.9913C85.6796 60.594 85.5798 60.151 85.5953 59.7046V56.0446H86.9841V59.624C86.9752 59.8934 87.0377 60.1604 87.1654 60.3983C87.3741 60.7394 87.7539 60.9193 88.2527 60.9193C88.7514 60.9193 89.1312 60.7394 89.34 60.3983C89.4676 60.1604 89.5301 59.8934 89.5212 59.624V56.0446H90.8984V59.7046C90.9139 60.151 90.8141 60.594 90.6085 60.9913C90.191 61.7282 89.3588 62.0621 88.244 62.0621C87.1291 62.0621 86.3013 61.7282 85.8852 60.9913Z" fill="#8C939F"/>
<path d="M101.718 61.9714L99.3171 58.8497C99.1272 58.6064 98.9546 58.3733 98.7546 58.1128H98.7372C98.7609 58.3942 98.7701 58.6767 98.7647 58.959V61.9728H97.3788V56.0446H98.7647L101.084 59.0396C101.274 59.2829 101.447 59.5074 101.619 59.7593H101.638C101.619 59.4541 101.619 59.0224 101.619 58.7878V56.0446H103.005V61.9714H101.718Z" fill="#8C939F"/>
<path d="M110.713 57.2046H108.964V56.0446H113.983L113.629 57.2046H112.099V61.9714H110.713V57.2046Z" fill="#8C939F"/>
<path d="M119.532 56.0445H121.453C121.873 56.0322 122.291 56.0996 122.685 56.2431C123.42 56.5396 123.7 57.134 123.7 57.7903C123.702 58.1309 123.592 58.4627 123.386 58.7349C123.18 59.0071 122.889 59.2046 122.559 59.2972V59.3145C122.74 59.4225 123.012 59.7377 123.32 60.2946L124.263 61.9771H122.685L121.96 60.6286C121.653 60.0528 121.453 59.837 121.317 59.8096H120.918V61.9771H119.532V56.0445ZM121.353 58.6985C121.541 58.7076 121.729 58.6674 121.897 58.5819C122.011 58.5153 122.105 58.4191 122.169 58.3035C122.233 58.188 122.264 58.0573 122.259 57.9256C122.262 57.784 122.225 57.6444 122.151 57.5233C122.077 57.4021 121.97 57.3045 121.842 57.242C121.691 57.1761 121.526 57.1456 121.362 57.1528H120.917V58.7L121.353 58.6985Z" fill="#8C939F"/>
<path d="M131.171 59.6326L129.087 56.0446H130.582L131.869 58.4639H131.887L133.183 56.0446H134.669L132.558 59.6513V61.9714H131.172L131.171 59.6326Z" fill="#8C939F"/>
<path d="M2.23987 65.7437H4.92913V76.7122H2.23987V65.7437Z" fill="#8C939F"/>
<path d="M9.24207 65.7437H11.6689L14.5684 69.5706C14.8894 69.987 15.1889 70.4194 15.4658 70.8659H15.5006C15.7562 70.3909 16.0379 69.9301 16.3443 69.4857L18.9538 65.7437H21.3996V76.7122H18.7016V71.1178C18.7016 70.7191 18.7016 70.2687 18.719 69.9362H18.7016C18.5958 70.1693 18.1217 70.8185 17.9274 71.1005L16.0428 73.7963H14.8641L12.7185 71.0012C12.4368 70.6638 12.1782 70.308 11.9444 69.9362H11.9096C11.927 70.3018 11.927 70.735 11.927 71.0343V76.7122H9.24207V65.7437Z" fill="#8C939F"/>
<path d="M25.7081 65.7437H28.135L31.0345 69.5706C31.3555 69.987 31.655 70.4194 31.9318 70.8659H31.9666C32.2223 70.3909 32.5039 69.9301 32.8104 69.4857L35.4199 65.7437H37.8656V76.7122H35.1706V71.1178C35.1706 70.7191 35.1706 70.2687 35.188 69.9362H35.1706C35.0647 70.1693 34.5907 70.8185 34.3964 71.1005L32.5117 73.7963H31.3331L29.1875 71.0012C28.9058 70.6638 28.6471 70.308 28.4133 69.9362H28.3785C28.3959 70.3018 28.3959 70.735 28.3959 71.0343V76.7122H25.7081V65.7437Z" fill="#8C939F"/>
<path d="M42.1743 65.7437H44.865V76.7122H42.1743V65.7437Z" fill="#8C939F"/>
<path d="M59.5174 75.9595C58.2692 76.5352 56.6499 76.8749 55.032 76.8749C50.9857 76.8749 48.7343 74.5462 48.7343 71.4503C48.7343 68.1401 51.3438 65.6271 55.3654 65.6271C56.5518 65.6171 57.7326 65.7909 58.865 66.1424V68.4883C57.8367 68.0036 56.714 67.7481 55.5756 67.7399C52.9371 67.7399 51.6004 69.2037 51.6004 71.3179C51.6004 73.3645 52.8675 74.7621 55.1711 74.7621C55.7332 74.7769 56.2938 74.6981 56.8296 74.5289V71.2834H59.5203L59.5174 75.9595Z" fill="#8C939F"/>
<path d="M63.742 65.7437H67.4707C68.4739 65.7437 69.2481 65.8761 69.8628 66.1092C71.2879 66.6576 71.833 67.7572 71.833 68.9704C71.833 70.3852 70.8472 71.3826 69.6163 71.7496V71.7827C69.9686 71.9828 70.4963 72.5643 71.0936 73.5962L72.9217 76.7122H69.8628L68.4551 74.2165C67.8564 73.1515 67.4693 72.7528 67.2069 72.7024H66.4327V76.7122H63.742V65.7437ZM67.2779 70.6515C67.6424 70.6686 68.0053 70.5943 68.3333 70.4356C68.5524 70.3178 68.7342 70.1418 68.8584 69.9272C68.9826 69.7127 69.0442 69.4682 69.0364 69.2209C69.0405 68.9547 68.966 68.6931 68.8223 68.4684C68.6786 68.2436 68.4719 68.0654 68.2275 67.9558C67.9328 67.8333 67.6145 67.7768 67.2953 67.7903H66.4342V70.6515H67.2779Z" fill="#8C939F"/>
<path d="M79.6267 65.6932H81.8434L86.6449 76.7122H83.7599L82.6523 74.0999H78.883L77.8334 76.7122H75.0789L79.6267 65.6932ZM81.8434 72.0663L81.2983 70.5522C81.0344 69.8037 80.8938 69.3374 80.8054 68.9877H80.7706C80.6259 69.5273 80.4438 70.0563 80.2255 70.5709L79.6456 72.0677L81.8434 72.0663Z" fill="#8C939F"/>
<path d="M91.9249 67.8896H88.5296V65.7437H98.2733L97.5875 67.8896H94.6156V76.7122H91.9249V67.8896Z" fill="#8C939F"/>
<path d="M101.266 65.7437H103.956V76.7122H101.266V65.7437Z" fill="#8C939F"/>
<path d="M107.827 71.2501C107.827 67.9226 110.273 65.627 113.807 65.627C117.342 65.627 119.787 67.9298 119.787 71.2501C119.787 74.5705 117.343 76.8747 113.804 76.8747C110.265 76.8747 107.827 74.5791 107.827 71.2501ZM116.921 71.2501C116.921 68.9214 115.637 67.7398 113.807 67.7398C111.978 67.7398 110.693 68.9214 110.693 71.2501C110.693 73.5788 111.978 74.7605 113.807 74.7605C115.637 74.7605 116.921 73.5803 116.921 71.2501Z" fill="#8C939F"/>
<path d="M132.085 76.7122L127.425 70.9393C127.055 70.4903 126.721 70.0571 126.334 69.5749H126.3C126.345 70.0951 126.362 70.6174 126.352 71.1394V76.7122H123.662V65.7437H126.353L130.856 71.2833C131.226 71.7324 131.559 72.1469 131.894 72.6146H131.926C131.891 72.049 131.891 71.2502 131.891 70.8184V65.7437H134.582V76.7122H132.085Z" fill="#8C939F"/>
<path d="M41.4477 45.7682L68.4128 28.264L95.4591 45.7682L91.3998 47.1426C108.452 48.1947 123.988 50.391 136.946 53.4365C129.418 50.7393 120.508 48.4855 110.6 46.8059C109.404 46.6073 108.24 46.2556 107.135 45.7595C106.458 45.453 105.804 45.086 105.445 44.6959C104.523 43.6971 104.732 41.0143 105.035 39.9464L108.112 29.1419L96.8276 30.7064C95.7186 30.8359 94.508 29.9177 93.7397 28.7979L91.4636 25.5251L81.6054 33.8109L82.8754 14.2111L78.4232 14.8386C77.7289 14.9383 77.0205 14.8195 76.3978 14.4989C75.775 14.1782 75.269 13.6719 74.9511 13.0511L68.3722 0.161133L61.789 13.0511C61.4721 13.6714 60.9676 14.1778 60.3462 14.4991C59.7248 14.8205 59.0178 14.9407 58.3241 14.8429L53.8198 14.2082L55.0578 33.8037L45.5795 25.5323L43.17 29.0369C42.4002 30.1566 41.1404 30.8215 40.0299 30.692L28.6915 29.1261L31.8809 40.1824C32.1854 41.2489 32.3289 43.5258 31.591 44.67C31.3091 45.0789 30.9417 45.4225 30.5138 45.6775C29.8514 46.0876 29.1113 46.3585 28.3392 46.4734C17.6112 48.1832 8.00521 50.5566 -0.0335693 53.4365C12.9285 50.3896 28.4726 48.1919 45.5331 47.1412L41.4477 45.7682Z" fill="#8C939F"/>
<path d="M67.6853 38.3302H64.0261V41.9629H67.6853V38.3302Z" fill="#8C939F"/>
<path d="M72.8825 38.3302H69.2234V41.9629H72.8825V38.3302Z" fill="#8C939F"/>
<path d="M67.6853 43.5015H64.0261V47.1341H67.6853V43.5015Z" fill="#8C939F"/>
<path d="M72.8825 43.5015H69.2234V47.1341H72.8825V43.5015Z" fill="#8C939F"/>
<path d="M110.592 39.3948L108.005 41.9635L110.592 44.5322L113.18 41.9635L110.592 39.3948Z" fill="#8C939F"/>
<path d="M26.3153 39.3942L23.7279 41.9629L26.3153 44.5316L28.9027 41.9629L26.3153 39.3942Z" fill="#8C939F"/>
</g>
<defs>
<clipPath id="clip0">
<rect width="137" height="77" fill="white"/>
</clipPath>
</defs>
</svg>
