<svg width="77" height="43" viewBox="0 0 77 43" fill="none" xmlns="http://www.w3.org/2000/svg">
<g clip-path="url(#clip0)">
<path d="M1.25891 31.2976H1.96128L2.80136 32.4525C2.89466 32.5789 2.98142 32.7098 3.06128 32.8448H3.07106C3.14494 32.7015 3.22654 32.5623 3.3155 32.4276L4.06921 31.2976H4.77728V34.6074H3.99832V32.9195C3.99832 32.7989 3.99832 32.6631 4.00321 32.5626H3.99832C3.96736 32.6326 3.83047 32.8287 3.77424 32.9139L3.22913 33.7281H2.88854L2.26765 32.8841C2.18593 32.7819 2.11107 32.6745 2.04358 32.5626H2.0338C2.03869 32.6728 2.03869 32.8038 2.03869 32.8938V34.6066H1.25891V31.2976Z" fill="#E1493A"/>
<path d="M9.17567 31.2823H9.81775L11.2078 34.6074H10.3726L10.0516 33.8189H8.963L8.65745 34.6074H7.8573L9.17567 31.2823ZM9.81775 33.2064L9.65967 32.7491C9.58308 32.5233 9.54234 32.3826 9.51708 32.2765H9.5073C9.46546 32.439 9.41265 32.5985 9.34923 32.7539L9.18137 33.2064H9.81775Z" fill="#E1493A"/>
<path d="M14.4515 31.2976H15.3886C15.6519 31.2879 15.9142 31.3342 16.1578 31.4334C16.5342 31.6038 16.7436 31.9357 16.7436 32.4075C16.7436 32.7893 16.5758 33.2161 16.0461 33.4122C15.8118 33.4912 15.5652 33.5287 15.3177 33.5231H15.2313V34.6082H14.4524L14.4515 31.2976ZM15.3633 32.905C15.4763 32.9102 15.5892 32.8913 15.6941 32.8496C15.8571 32.774 15.9337 32.6181 15.9337 32.4075C15.9375 32.3234 15.9182 32.2398 15.8779 32.1655C15.8376 32.0913 15.7778 32.0291 15.7047 31.9856C15.5941 31.9315 15.471 31.9071 15.3478 31.9148H15.2305V32.9042L15.3633 32.905Z" fill="#E1493A"/>
<path d="M20.4836 31.2976H21.2667V33.9595H22.418V34.6074H20.4836V31.2976Z" fill="#E1493A"/>
<path d="M25.8215 31.2976H27.8381L27.6393 31.9454H26.6004V32.6133H27.6548V33.2611H26.6004V33.9595H27.8275V34.6074H25.8215V31.2976Z" fill="#E1493A"/>
<path d="M37.9239 34.3767C37.5698 34.5671 37.1718 34.664 36.7685 34.658C35.6074 34.658 35.006 33.9547 35.006 32.9854C35.006 32.0362 35.719 31.2622 36.8549 31.2622C37.1678 31.255 37.4791 31.3079 37.7715 31.4181V32.1214C37.4957 31.9761 37.1879 31.9002 36.8752 31.9004C36.1525 31.9004 35.8363 32.4075 35.8363 32.975C35.8363 33.593 36.234 34.0198 36.8646 34.0198C37.1645 34.0203 37.458 33.9349 37.7096 33.7739L37.9239 34.3767Z" fill="#E1493A"/>
<path d="M41.2296 32.9597C41.2296 31.955 41.9377 31.2622 42.9611 31.2622C43.9845 31.2622 44.6926 31.955 44.6926 32.9597C44.6926 33.9644 43.9845 34.6572 42.9611 34.6572C41.9377 34.6572 41.2296 33.9644 41.2296 32.9597ZM43.8623 32.9597C43.8623 32.2564 43.4907 31.8996 42.9611 31.8996C42.4315 31.8996 42.0599 32.2564 42.0599 32.9597C42.0599 33.663 42.4315 34.0198 42.9611 34.0198C43.4907 34.0198 43.8647 33.663 43.8647 32.9597H43.8623Z" fill="#E1493A"/>
<path d="M48.2713 34.06C48.1557 33.8381 48.0996 33.5908 48.1083 33.3415V31.2976H48.8889V33.2965C48.8839 33.4469 48.919 33.596 48.9907 33.7289C49.1081 33.9194 49.3216 34.0198 49.6019 34.0198C49.8822 34.0198 50.0956 33.9194 50.213 33.7289C50.2847 33.596 50.3199 33.4469 50.3148 33.2965V31.2976H51.0889V33.3415C51.0976 33.5908 51.0415 33.8381 50.9259 34.06C50.6913 34.4715 50.2236 34.658 49.597 34.658C48.9704 34.658 48.5051 34.4715 48.2713 34.06Z" fill="#E1493A"/>
<path d="M57.1699 34.6074L55.8205 32.8641C55.7138 32.7282 55.6168 32.598 55.5044 32.4525H55.4946C55.5079 32.6097 55.5131 32.7674 55.5101 32.9251V34.6082H54.7311V31.2976H55.5101L56.8138 32.9701C56.9205 33.106 57.0175 33.2314 57.1145 33.372H57.1251C57.1145 33.2016 57.1145 32.9605 57.1145 32.8295V31.2976H57.8934V34.6074H57.1699Z" fill="#E1493A"/>
<path d="M62.2258 31.9454H61.2423V31.2976H64.0632L63.8644 31.9454H63.0048V34.6074H62.2258V31.9454Z" fill="#E1493A"/>
<path d="M67.1823 31.2976H68.2619C68.4979 31.2907 68.7329 31.3283 68.9545 31.4085C69.3676 31.5741 69.5249 31.906 69.5249 32.2725C69.5261 32.4627 69.464 32.648 69.3482 32.8C69.2323 32.952 69.0692 33.0623 68.8836 33.114V33.1237C68.9855 33.1839 69.1379 33.36 69.3114 33.671L69.841 34.6106H68.9545L68.5471 33.8575C68.3744 33.536 68.2619 33.4154 68.1853 33.4002H67.9613V34.6106H67.1823V31.2976ZM68.2057 32.7797C68.3116 32.7847 68.417 32.7623 68.5113 32.7146C68.5757 32.6774 68.6286 32.6236 68.6645 32.5591C68.7004 32.4946 68.7178 32.4216 68.715 32.3481C68.7168 32.269 68.6957 32.191 68.6542 32.1234C68.6126 32.0557 68.5523 32.0012 68.4803 31.9663C68.3955 31.9295 68.3032 31.9125 68.2106 31.9164H67.9605V32.7805L68.2057 32.7797Z" fill="#E1493A"/>
<path d="M73.7236 33.3013L72.5527 31.2976H73.3928L74.1164 32.6486H74.1262L74.8546 31.2976H75.6898L74.5034 33.3117V34.6074H73.7244L73.7236 33.3013Z" fill="#E1493A"/>
<path d="M1.25891 36.714H2.77039V42.8392H1.25891V36.714Z" fill="#E1493A"/>
<path d="M5.19446 36.714H6.55846L8.18809 38.8511C8.36851 39.0837 8.53685 39.3251 8.69246 39.5745H8.71201C8.85569 39.3092 9.014 39.0519 9.18624 38.8037L10.6529 36.714H12.0275V42.8392H10.5111V39.7151C10.5111 39.4925 10.5111 39.2409 10.5209 39.0553H10.5111C10.4516 39.1855 10.1852 39.5479 10.076 39.7055L9.01676 41.2109H8.35431L7.14838 39.65C6.99004 39.4616 6.84468 39.2629 6.71327 39.0553H6.69372C6.7035 39.2594 6.7035 39.5013 6.7035 39.6685V42.8392H5.19446V36.714Z" fill="#E1493A"/>
<path d="M14.4491 36.714H15.8131L17.4427 38.8511C17.6231 39.0837 17.7915 39.3251 17.9471 39.5745H17.9667C18.1103 39.3092 18.2686 39.0519 18.4409 38.8037L19.9075 36.714H21.2821V42.8392H19.7674V39.7151C19.7674 39.4925 19.7674 39.2409 19.7772 39.0553H19.7674C19.7079 39.1855 19.4415 39.5479 19.3323 39.7055L18.273 41.2109H17.6106L16.4047 39.65C16.2463 39.4616 16.101 39.2629 15.9695 39.0553H15.95C15.9598 39.2594 15.9598 39.5013 15.9598 39.6685V42.8392H14.4491V36.714Z" fill="#E1493A"/>
<path d="M23.7038 36.714H25.2161V42.8392H23.7038V36.714Z" fill="#E1493A"/>
<path d="M33.4514 42.4189C32.7498 42.7404 31.8397 42.9301 30.9304 42.9301C28.6562 42.9301 27.3908 41.6296 27.3908 39.9008C27.3908 38.0522 28.8575 36.6489 31.1178 36.6489C31.7846 36.6432 32.4482 36.7403 33.0847 36.9366V38.2467C32.5068 37.976 31.8757 37.8333 31.2359 37.8288C29.753 37.8288 29.0017 38.6462 29.0017 39.8268C29.0017 40.9698 29.7138 41.7502 31.0086 41.7502C31.3245 41.7585 31.6396 41.7145 31.9407 41.62V39.8076H33.453L33.4514 42.4189Z" fill="#E1493A"/>
<path d="M35.8258 36.714H37.9215C38.4854 36.714 38.9205 36.7879 39.266 36.9181C40.0669 37.2243 40.3733 37.8384 40.3733 38.5159C40.3733 39.306 39.8192 39.863 39.1274 40.068V40.0864C39.3254 40.1982 39.622 40.5229 39.9577 41.0992L40.9852 42.8392H39.266L38.4748 41.4456C38.1383 40.8508 37.9207 40.6282 37.7732 40.6H37.3381V42.8392H35.8258V36.714ZM37.8131 39.4547C38.018 39.4643 38.222 39.4228 38.4063 39.3342C38.5295 39.2683 38.6317 39.17 38.7014 39.0503C38.7712 38.9305 38.8059 38.7939 38.8015 38.6558C38.8038 38.5071 38.7619 38.3611 38.6812 38.2356C38.6004 38.11 38.4842 38.0105 38.3468 37.9493C38.1812 37.8809 38.0023 37.8494 37.8229 37.8569H37.3389V39.4547H37.8131Z" fill="#E1493A"/>
<path d="M44.7537 36.6858H45.9996L48.6982 42.8392H47.0767L46.4542 41.3805H44.3357L43.7458 42.8392H42.1976L44.7537 36.6858ZM45.9996 40.2448L45.6932 39.3992C45.5449 38.9813 45.4659 38.7209 45.4161 38.5256H45.3966C45.3153 38.8269 45.2129 39.1223 45.0902 39.4097L44.7643 40.2456L45.9996 40.2448Z" fill="#E1493A"/>
<path d="M51.6658 37.9123H49.7575V36.714H55.2339L54.8485 37.9123H53.1781V42.8392H51.6658V37.9123Z" fill="#E1493A"/>
<path d="M56.9156 36.714H58.4279V42.8392H56.9156V36.714Z" fill="#E1493A"/>
<path d="M60.6035 39.7891C60.6035 37.9308 61.9781 36.6489 63.9646 36.6489C65.9511 36.6489 67.3257 37.9348 67.3257 39.7891C67.3257 41.6433 65.952 42.9301 63.963 42.9301C61.974 42.9301 60.6035 41.6481 60.6035 39.7891ZM65.7148 39.7891C65.7148 38.4886 64.9929 37.8288 63.9646 37.8288C62.9363 37.8288 62.2144 38.4886 62.2144 39.7891C62.2144 41.0895 62.9363 41.7494 63.9646 41.7494C64.9929 41.7494 65.7148 41.0903 65.7148 39.7891Z" fill="#E1493A"/>
<path d="M74.2378 42.8392L71.6182 39.6155C71.4104 39.3647 71.223 39.1228 71.0054 38.8535H70.9859C71.0113 39.144 71.0211 39.4356 71.0152 39.7272V42.8392H69.5037V36.714H71.016L73.5468 39.8076C73.7546 40.0583 73.942 40.2898 74.1302 40.551H74.1482C74.1286 40.2351 74.1286 39.7891 74.1286 39.5479V36.714H75.6409V42.8392H74.2378Z" fill="#E1493A"/>
<path d="M23.2956 25.5589L38.4511 15.7838L53.6523 25.5589L51.3708 26.3265C60.9547 26.914 69.687 28.1405 76.9699 29.8412C72.7385 28.335 67.7307 27.0763 62.1622 26.1384C61.4902 26.0275 60.8356 25.8311 60.2148 25.5541C59.8343 25.3829 59.4668 25.1779 59.2647 24.9601C58.7465 24.4023 58.8639 22.9041 59.0342 22.3078L60.764 16.2741L54.4215 17.1478C53.7982 17.2201 53.1178 16.7073 52.6859 16.082L51.4067 14.2543L45.8659 18.8814L46.5797 7.93611L44.0774 8.28654C43.6872 8.34222 43.2891 8.27587 42.939 8.09681C42.589 7.91776 42.3046 7.63501 42.1259 7.2883L38.4283 0.0900192L34.7282 7.2883C34.5501 7.63473 34.2666 7.91749 33.9173 8.09694C33.5681 8.27639 33.1707 8.34354 32.7808 8.28895L30.2492 7.93451L30.945 18.8774L25.6178 14.2583L24.2636 16.2154C23.8309 16.8407 23.1228 17.2121 22.4987 17.1397L16.126 16.2653L17.9186 22.4396C18.0897 23.0351 18.1704 24.3067 17.7556 24.9456C17.5972 25.174 17.3907 25.3659 17.1502 25.5082C16.7779 25.7373 16.3619 25.8886 15.928 25.9527C9.89837 26.9076 4.49941 28.2329 -0.0187378 29.8412C7.26652 28.1397 16.003 26.9124 25.5917 26.3256L23.2956 25.5589Z" fill="#E1493A"/>
<path d="M38.0421 21.4052H35.9855V23.4338H38.0421V21.4052Z" fill="#E1493A"/>
<path d="M40.9632 21.4052H38.9066V23.4338H40.9632V21.4052Z" fill="#E1493A"/>
<path d="M38.0421 24.293H35.9855V26.3216H38.0421V24.293Z" fill="#E1493A"/>
<path d="M40.9632 24.293H38.9066V26.3216H40.9632V24.293Z" fill="#E1493A"/>
<path d="M62.1576 21.9997L60.7034 23.4342L62.1576 24.8686L63.6118 23.4342L62.1576 21.9997Z" fill="#E1493A"/>
<path d="M14.7903 21.9993L13.3361 23.4338L14.7903 24.8683L16.2446 23.4338L14.7903 21.9993Z" fill="#E1493A"/>
</g>
<defs>
<clipPath id="clip0">
<rect width="77" height="43" fill="white"/>
</clipPath>
</defs>
</svg>
