<svg width="30" height="31" viewBox="0 0 30 31" fill="none" xmlns="http://www.w3.org/2000/svg">
<g clip-path="url(#clip0)">
<path d="M28.125 3.6313H21.0937V1.28577C21.0937 1.02669 20.8841 0.817017 20.625 0.817017C20.3659 0.817017 20.1562 1.02669 20.1562 1.28577V3.6313H10.3125V1.28577C10.3125 1.02669 10.1029 0.817017 9.84374 0.817017C9.58466 0.817017 9.37499 1.02669 9.37499 1.28577V3.6313H1.87476C0.83924 3.6313 -0.000244141 4.47074 -0.000244141 5.5063V28.942C-0.000244141 29.9775 0.83924 30.817 1.87476 30.817H28.125C29.1606 30.817 30 29.9775 30 28.942V5.5063C30 4.47074 29.1606 3.6313 28.125 3.6313ZM1.87476 4.5688H9.37499V5.97327C9.37499 6.23234 9.58466 6.44202 9.84374 6.44202C10.1029 6.44202 10.3125 6.23234 10.3125 5.97327V4.5688H20.1562V5.97327C20.1562 6.23234 20.3659 6.44202 20.625 6.44202C20.8841 6.44202 21.0937 6.23234 21.0937 5.97327V4.5688H28.125C28.6419 4.5688 29.0625 4.98931 29.0625 5.5063V8.78577H0.937491L0.937256 8.78581V5.5063C0.937256 4.98931 1.35787 4.5688 1.87476 4.5688ZM29.0625 28.942C29.0625 29.459 28.6419 29.8795 28.125 29.8795H1.87476C1.35787 29.8795 0.937256 29.459 0.937256 28.942V9.72322L0.93749 9.72327H29.0625V28.942Z" fill="#8C939F"/>
<path d="M8.43762 12.067H4.68762V15.817H8.43762V12.067ZM7.50012 14.8795H5.62512V13.0045H7.50012V14.8795Z" fill="#8C939F"/>
<path d="M16.8751 12.067H13.1251V15.817H16.8751V12.067ZM15.9376 14.8795H14.0626V13.0045H15.9376V14.8795Z" fill="#8C939F"/>
<path d="M25.3126 12.067H21.5626V15.817H25.3126V12.067ZM24.3751 14.8795H22.5001V13.0045H24.3751V14.8795Z" fill="#8C939F"/>
<path d="M8.43762 17.692H4.68762V21.442H8.43762V17.692ZM7.50012 20.5045H5.62512V18.6295H7.50012V20.5045Z" fill="#8C939F"/>
<path d="M16.8751 17.692H13.1251V21.442H16.8751V17.692ZM15.9376 20.5045H14.0626V18.6295H15.9376V20.5045Z" fill="#8C939F"/>
<path d="M8.43762 23.317H4.68762V27.067H8.43762V23.317ZM7.50012 26.1295H5.62512V24.2545H7.50012V26.1295Z" fill="#8C939F"/>
<path d="M16.8751 23.317H13.1251V27.067H16.8751V23.317ZM15.9376 26.1295H14.0626V24.2545H15.9376V26.1295Z" fill="#8C939F"/>
<path d="M25.3126 17.692H21.5626V21.442H25.3126V17.692ZM24.3751 20.5045H22.5001V18.6295H24.3751V20.5045Z" fill="#8C939F"/>
<path d="M25.3126 23.317H21.5626V27.067H25.3126V23.317ZM24.3751 26.1295H22.5001V24.2545H24.3751V26.1295Z" fill="#8C939F"/>
</g>
<defs>
<clipPath id="clip0">
<rect y="0.817017" width="30" height="30" fill="white"/>
</clipPath>
</defs>
</svg>
